`                                                                  
               ,o888888o.     8 888888888o.      8 888888888o.      
            . 8888     `88.   8 8888    `^888.   8 8888    `^888.   
           ,8 8888       `8b  8 8888        `88. 8 8888        `88. 
           88 8888        `8b 8 8888         `88 8 8888         `88 
           88 8888         88 8 8888          88 8 8888          88 
           88 8888         88 8 8888          88 8 8888          88 
           88 8888        ,8P 8 8888         ,88 8 8888         ,88 
           `8 8888       ,8P  8 8888        ,88' 8 8888        ,88' 
            ` 8888     ,88'   8 8888    ,o88P'   8 8888    ,o88P'   
               `8888888P'     8 888888888P'      8 888888888P' 
     
                                   oddball                               
      8 888888888o            .8.  -links  8 8888         8 8888         
      8 8888    `88.         .888. .       8 8888         8 8888         
      8 8888     `88        :88888. c      8 8888         8 8888         
      8 8888     ,88       . `88888. o     8 8888         8 8888         
      8 8888.   ,88'      .8. `88888. m    8 8888         8 8888         
      8 8888888888       .8`8. `88888.     8 8888         8 8888         
      8 8888    `88.    .8' `8. `88888.    8 8888         8 8888         
      8 8888      88   .8'   `8. `88888.   8 8888         8 8888         
      8 8888    ,88'  .888888888. `88888.  8 8888         8 8888         
      8 888888888P   .8'       `8. `88888. 8 888888888888 8 888888888888 

Cirque du Freak: The Vampire's Assistant is the 2009 film adaptation of the Vampire Blood trilogy of the book series The Saga of Darren Shan by author Darren Shan.


                                    +-+-+-+-+
                                    |c|a|s|t|
                                    +-+-+-+-+
                                         
                  Actor                              Role


                 John C. Reilly     ............    Larten Crepsley

	        Josh Hutcherson    ...........    Steve

	        Chris Massoglia	...........    Darren Shan

	        Jessica Carlson	...........    Rebecca

	        Michael Cerveris	...........    Mr. Tiny
  
	        Ray Stevenson	...........    Murlaugh

	        Patrick Fugit	...........    Evra the Snake Boy

	        Daniel Newman	...........    Pete

	        Morgan Saylor	...........    Annie

	        Don McManu         ...........    Mr. Shan

	       Colleen Camp	...........    Mrs. Shan




General
Complete name                    : The Vampire's Assistant
Format                           : AVI
Format/Info                      : Audio Video Interleave
File size                        : 759 MiB
Duration                         : 1h 44mn
Overall bit rate                 : 1 017 Kbps

Video
Format                           : MPEG-4 Visual
Format profile                   : Streaming Video@L1
Format settings, BVOP            : Yes
Format settings, QPel            : No
Format settings, GMC             : No warppoints
Format settings, Matrix          : Default
Muxing mode                      : Packed bitstream
Codec ID                         : XVID
Codec ID/Hint                    : XviD
Duration                         : 1h 44mn
Bit rate                         : 813 Kbps
Width                            : 1 024 pixels
Height                           : 582 pixels
Display aspect ratio             : 16/9
Frame rate                       : 29.970 fps
Resolution                       : 24 bits
Colorimetry                      : 4:2:0
Scan type                        : Progressive
Bits/(Pixel*Frame)               : 0.046
Stream size                      : 607 MiB (80%)
Writing library                  : XviD 1.1.2 (UTC 2006-11-01)

Audio
Format                           : MPEG Audio
Format version                   : Version 1
Format profile                   : Layer 3
Codec ID                         : 55
Codec ID/Hint                    : MP3
Duration                         : 1h 44mn
Bit rate mode                    : Constant
Bit rate                         : 192 Kbps
Channel(s)                       : 2 channels
Sampling rate                    : 44.1 KHz
Resolution                       : 16 bits
Video delay                      : 26ms
Stream size                      : 143 MiB (19%)
Alignment                        : Split accross interleaves
Interleave, duration             : 33 ms (1.00 video frame)
Title                            : Audio Stream
Writing library                  : LAME3.92


For more oddball torrents  http://thepiratebay.org/user/oddball-links `                                                                                                            Please seed after downloading `                                                                                            :::===  :::===== :::===== :::====       :::= === :::====  :::====
        :::     :::      :::      :::  ===      :::===== :::  === :::====
         =====  ======   ======   ===  ===      ======== ===  ===   ===  
            === ===      ===      ===  ===      === ==== ===  ===   ===  
        ======  ======== ======== =======       ===  ===  ======    ===  
                                                                         
                  :::=====  :::====  :::===== :::===== :::==== 
                  :::       :::  === :::      :::      :::  ===
                  === ===== =======  ======   ======   ===  ===
                  ===   === === ===  ===      ===      ===  ===
                   =======  ===  === ======== ======== =======